<?xml version="1.0" encoding="UTF-8"?>
<svg width="14px" height="15px" viewBox="0 0 14 15" version="1.1" xmlns="http://www.w3.org/2000/svg" xmlns:xlink="http://www.w3.org/1999/xlink">
    <!-- Generator: Sketch 55 (78076) - https://sketchapp.com -->
    <title>Combined Shape</title>
    <desc>Created with Sketch.</desc>
    <g id="Page-1" stroke="none" stroke-width="1" fill="none" fill-rule="evenodd">
        <g id="Artboard" transform="translate(-367.000000, -397.000000)" fill="#6FB2FF" fill-rule="nonzero">
            <g id="Group-13" transform="translate(60.000000, 60.000000)">
                <g id="Group-8" transform="translate(0.000000, 323.000000)">
                    <g id="Group-9" transform="translate(20.000000, 12.000000)">
                        <g id="Group-7" transform="translate(248.000000, 0.000000)">
                            <g id="Group-6" transform="translate(39.000000, 2.000000)">
                                <g id="Group-5">
                                    <path d="M6.00941084,12.1377568 C6.00320627,12.0927254 6,12.0467371 6,12 L6,1 C6,0.44771525 6.44771525,0 7,0 C7.55228475,0 8,0.44771525 8,1 L8,12 C8,12.0467371 7.99679373,12.0927254 7.99058916,12.1377568 L12.4452998,9.16794971 C12.9048285,8.86159725 13.5256978,8.98577112 13.8320503,9.4452998 C14.1384028,9.90482849 14.0142289,10.5256978 13.5547002,10.8320503 L7.5547002,14.8320503 C7.21880078,15.0559832 6.78119922,15.0559832 6.4452998,14.8320503 L0.445299804,10.8320503 C-0.0142288849,10.5256978 -0.138402753,9.90482849 0.167949706,9.4452998 C0.474302165,8.98577112 1.09517151,8.86159725 1.5547002,9.16794971 L6.00941084,12.1377568 Z" id="Combined-Shape"></path>
                                </g>
                            </g>
                        </g>
                    </g>
                </g>
            </g>
        </g>
    </g>
</svg>