<svg id="Layer_1" data-name="Layer 1" xmlns="http://www.w3.org/2000/svg" width="300" height="300" viewBox="0 0 300 300"><title>Artboard 1</title><path d="M143.7,48.1v137A71.5,71.5,0,0,1,73,252.9C33.3,253.3.8,219.4.8,179.7V169.2A.2.2,0,0,1,1,169H45.3a.2.2,0,0,1,.2.2v11.1c0,14.3,10.8,26.9,25.1,27.8a26.7,26.7,0,0,0,28.4-26.7l.2-2.9V48.1a.2.2,0,0,1,.2-.2h44A.2.2,0,0,1,143.7,48.1Z" fill="#ebbe50"/><path d="M299.3,207.7c-1.7,20.5-15.4,44.7-69,44.7H202.7c-20.5-.4-39.3-.3-49.3-8.9-13.2-11.4-14.5-13.2-14.5-13.2L171,198.2l7.5,7.4c5.2,5.2,24.6,5.2,38.8,5.2h18.5c3.9-.5,17.3-.3,17.3-11.8,0-5.7-7-12.2-14.1-16.9-1.6-1.1-52-33.8-53.4-34.9-12.2-10.2-34.4-27.4-26.3-58.9,11-42.2,49.4-41.8,60.4-41.8s30.9,6.4,53.2,23.4c-8.9,11.4-15.4,19.1-24.5,30.4-12.4-6.7-29.4-18-41.1-10.8-6.9,4.2-8.4,13.7-2.4,21a5.1,5.1,0,0,0,1.3,1.1c14.5,9.9,25.7,16,50,32.4,8.2,5.5,15.6,10.1,25.3,18.7s16.9,19.3,17.9,34.9A58.2,58.2,0,0,1,299.3,207.7Z" fill="#ebbe50"/><path d="M143.5,47.9h-44a.2.2,0,0,0-.2.2V178.6l-.2,2.9a26.7,26.7,0,0,1-28.4,26.7c-14.3-.9-25.1-13.4-25.1-27.8V169.2a.2.2,0,0,0-.2-.2H1a.2.2,0,0,0-.2.2v10.4c0,39.8,32.5,73.7,72.2,73.3a71.5,71.5,0,0,0,70.7-67.8V48.1A.2.2,0,0,0,143.5,47.9ZM299.3,197.4c-1-15.7-8-26.2-17.9-34.9s-17.1-13.2-25.3-18.7c-24.3-16.4-35.5-22.4-50-32.4a5.1,5.1,0,0,1-1.3-1.1c-6-7.3-4.5-16.8,2.4-21,11.7-7.2,28.7,4.1,41.1,10.8,9.1-11.3,15.7-18.9,24.5-30.4-22.3-17-42.1-23.4-53.2-23.4s-49.5-.4-60.4,41.8c-8.2,31.5,14.1,48.7,26.3,58.9,1.4,1.2,51.8,33.9,53.4,34.9,7.1,4.7,14.1,11.2,14.1,16.9,0,11.6-13.4,11.3-17.3,11.8H212.1c-7.6,0-26.6,1-33.6-5.2-1.9-1.6-7.5-7.4-7.5-7.4l-32.1,32.1s.5.8,12.9,12.9c8.9,8.9,27.3,8.5,52.3,9.2h26.1c49.4,0,67.3-24.2,69-44.7A58.2,58.2,0,0,0,299.3,197.4Z" fill="#ebbe50"/></svg>