<svg id="Layer_1" data-name="Layer 1" xmlns="http://www.w3.org/2000/svg" width="300" height="300" viewBox="0 0 300 300"><title>Artboard 1-100</title><path d="M143.7,48.1v137A71.5,71.5,0,0,1,73,252.9C33.3,253.3.8,219.4.8,179.7V169.2A.2.2,0,0,1,1,169H45.3a.2.2,0,0,1,.2.2v11.1c0,14.3,10.8,26.9,25.1,27.8a26.7,26.7,0,0,0,28.4-26.7l.2-2.9V48.1a.2.2,0,0,1,.2-.2h44A.2.2,0,0,1,143.7,48.1Z" fill="#ebbe50"/><path d="M143.5,47.9h-44a.2.2,0,0,0-.2.2V178.6l-.2,2.9a26.7,26.7,0,0,1-28.4,26.7c-14.3-.9-25.1-13.4-25.1-27.8V169.2a.2.2,0,0,0-.2-.2H1a.2.2,0,0,0-.2.2v10.4c0,39.8,32.5,73.7,72.2,73.3a71.5,71.5,0,0,0,70.7-67.8V48.1A.2.2,0,0,0,143.5,47.9Z" fill="#ebbe50"/><path d="M299.3,47.9h-44a.2.2,0,0,0-.2.2V178.6l-.2,2.9a26.7,26.7,0,0,1-28.4,26.7c-14.3-.9-25.1-13.4-25.1-27.8V169.2a.2.2,0,0,0-.2-.2H156.8a.2.2,0,0,0-.2.2v10.4c0,39.8,32.5,73.7,72.2,73.3a71.5,71.5,0,0,0,70.7-67.8V48.1A.2.2,0,0,0,299.3,47.9Z" fill="#ebbe50"/></svg>