<svg id="Layer_1" data-name="Layer 1" xmlns="http://www.w3.org/2000/svg" xmlns:xlink="http://www.w3.org/1999/xlink" width="1225.4" height="1000" viewBox="0 0 1225.4 1000"><defs><clipPath id="clip-path"><rect x="-1426.5" y="-3.7" width="1231.5" height="1004.84" fill="none"/></clipPath><clipPath id="clip-path-2"><rect x="-2.2" y="-2.1" width="1227.9" height="1000.52" fill="none"/></clipPath></defs><title>Artboard 1 copy 6</title><g clip-path="url(#clip-path)"><polygon points="-104.1 156.7 -254.8 56.1 -104.1 -44.6 46.7 56.1 -104.1 156.7" fill="none" stroke="#ebbe50" stroke-miterlimit="10" stroke-width="15"/></g><g clip-path="url(#clip-path-2)"><polygon points="892.6 186.6 741.9 287.2 892.6 387.8 1043.4 287.2 892.6 186.6" fill="none" stroke="#ebbe50" stroke-miterlimit="10" stroke-width="15"/><polygon points="892.6 85.2 741.9 185.8 892.6 286.4 1043.4 185.8 892.6 85.2" fill="none" stroke="#ebbe50" stroke-miterlimit="10" stroke-width="15"/><polygon points="892.6 -14.2 741.9 86.4 892.6 187 1043.4 86.4 892.6 -14.2" fill="none" stroke="#ebbe50" stroke-miterlimit="10" stroke-width="15"/><polygon points="892.6 -116 741.9 -15.4 892.6 85.2 1043.4 -15.4 892.6 -116" fill="none" stroke="#ebbe50" stroke-miterlimit="10" stroke-width="15"/><polygon points="1047 399.4 896.3 500 1047 600.6 1197.8 500 1047 399.4" fill="none" stroke="#ebbe50" stroke-miterlimit="10" stroke-width="15"/><polygon points="1273.1 399.4 1122.3 500 1273.1 600.6 1423.8 500 1273.1 399.4" fill="none" stroke="#ebbe50" stroke-miterlimit="10" stroke-width="15"/><polygon points="-48.8 399.4 -199.5 500 -48.8 600.6 102 500 -48.8 399.4" fill="none" stroke="#ebbe50" stroke-miterlimit="10" stroke-width="15"/><polygon points="-123.3 399.4 -274 500 -123.3 600.6 27.5 500 -123.3 399.4" fill="none" stroke="#ebbe50" stroke-miterlimit="10" stroke-width="15"/><polygon points="1347.4 399.4 1196.6 500 1347.4 600.6 1498.1 500 1347.4 399.4" fill="none" stroke="#ebbe50" stroke-miterlimit="10" stroke-width="15"/><polygon points="178.5 399.4 27.7 500 178.5 600.6 329.2 500 178.5 399.4" fill="none" stroke="#ebbe50" stroke-miterlimit="10" stroke-width="15"/><polygon points="332.5 186.6 181.7 287.2 332.5 387.8 483.2 287.2 332.5 186.6" fill="none" stroke="#ebbe50" stroke-miterlimit="10" stroke-width="15"/><polygon points="332.5 85.2 181.7 185.8 332.5 286.4 483.2 185.8 332.5 85.2" fill="none" stroke="#ebbe50" stroke-miterlimit="10" stroke-width="15"/><polygon points="332.5 -14.2 181.7 86.4 332.5 187 483.2 86.4 332.5 -14.2" fill="none" stroke="#ebbe50" stroke-miterlimit="10" stroke-width="15"/><polygon points="332.5 -116 181.7 -15.4 332.5 85.2 483.2 -15.4 332.5 -116" fill="none" stroke="#ebbe50" stroke-miterlimit="10" stroke-width="15"/><polygon points="892.6 914.1 741.9 1014.8 892.6 1115.4 1043.4 1014.8 892.6 914.1" fill="none" stroke="#ebbe50" stroke-miterlimit="10" stroke-width="15"/><polygon points="892.6 812.7 741.9 913.4 892.6 1014 1043.4 913.4 892.6 812.7" fill="none" stroke="#ebbe50" stroke-miterlimit="10" stroke-width="15"/><polygon points="892.6 713.3 741.9 814 892.6 914.6 1043.4 814 892.6 713.3" fill="none" stroke="#ebbe50" stroke-miterlimit="10" stroke-width="15"/><polygon points="892.6 611.5 741.9 712.1 892.6 812.8 1043.4 712.1 892.6 611.5" fill="none" stroke="#ebbe50" stroke-miterlimit="10" stroke-width="15"/><polygon points="332.5 914.1 181.7 1014.8 332.5 1115.4 483.2 1014.8 332.5 914.1" fill="none" stroke="#ebbe50" stroke-miterlimit="10" stroke-width="15"/><polygon points="332.5 812.7 181.7 913.4 332.5 1014 483.2 913.4 332.5 812.7" fill="none" stroke="#ebbe50" stroke-miterlimit="10" stroke-width="15"/><polygon points="332.5 713.3 181.7 814 332.5 914.6 483.2 814 332.5 713.3" fill="none" stroke="#ebbe50" stroke-miterlimit="10" stroke-width="15"/><polygon points="332.5 611.5 181.7 712.1 332.5 812.8 483.2 712.1 332.5 611.5" fill="none" stroke="#ebbe50" stroke-miterlimit="10" stroke-width="15"/><line x1="-372.3" y1="1282.5" x2="917.3" y2="423.5" fill="#494138" stroke="#ebbe50" stroke-miterlimit="10" stroke-width="15"/><line x1="-304.5" y1="1338.4" x2="985.1" y2="479.4" fill="#494138" stroke="#ebbe50" stroke-miterlimit="10" stroke-width="15"/><line x1="-509.3" y1="1172.8" x2="780.3" y2="313.8" fill="#494138" stroke="#ebbe50" stroke-miterlimit="10" stroke-width="15"/><line x1="-441.5" y1="1228.7" x2="848.1" y2="369.7" fill="#494138" stroke="#ebbe50" stroke-miterlimit="10" stroke-width="15"/><line x1="1595.7" y1="1282.5" x2="306.1" y2="423.5" fill="#494138" stroke="#ebbe50" stroke-miterlimit="10" stroke-width="15"/><line x1="1527.9" y1="1338.4" x2="238.3" y2="479.4" fill="#494138" stroke="#ebbe50" stroke-miterlimit="10" stroke-width="15"/><line x1="1774.7" y1="1199.2" x2="485" y2="340.2" fill="#494138" stroke="#ebbe50" stroke-miterlimit="10" stroke-width="15"/><line x1="1874.4" y1="1145" x2="584.7" y2="286" fill="#494138" stroke="#ebbe50" stroke-miterlimit="10" stroke-width="15"/><line x1="1706.8" y1="1255.1" x2="417.2" y2="396.1" fill="#494138" stroke="#ebbe50" stroke-miterlimit="10" stroke-width="15"/><line x1="-372.3" y1="-281.7" x2="917.3" y2="577.4" fill="#494138" stroke="#ebbe50" stroke-miterlimit="10" stroke-width="15"/><line x1="-304.5" y1="-337.6" x2="985.1" y2="521.5" fill="#494138" stroke="#ebbe50" stroke-miterlimit="10" stroke-width="15"/><line x1="-525.7" y1="-184.5" x2="763.9" y2="674.6" fill="#494138" stroke="#ebbe50" stroke-miterlimit="10" stroke-width="15"/><line x1="-723" y1="-193.1" x2="566.7" y2="665.9" fill="#494138" stroke="#ebbe50" stroke-miterlimit="10" stroke-width="15"/><line x1="-457.9" y1="-240.4" x2="831.7" y2="618.7" fill="#494138" stroke="#ebbe50" stroke-miterlimit="10" stroke-width="15"/><line x1="1595.7" y1="-281.7" x2="306.1" y2="577.4" fill="#494138" stroke="#ebbe50" stroke-miterlimit="10" stroke-width="15"/><line x1="1527.9" y1="-337.6" x2="238.3" y2="521.5" fill="#494138" stroke="#ebbe50" stroke-miterlimit="10" stroke-width="15"/><line x1="1756.4" y1="-187.5" x2="466.8" y2="671.6" fill="#494138" stroke="#ebbe50" stroke-miterlimit="10" stroke-width="15"/><line x1="1864.8" y1="-133.3" x2="575.2" y2="725.8" fill="#494138" stroke="#ebbe50" stroke-miterlimit="10" stroke-width="15"/><line x1="640.2" y1="289.4" x2="-649.4" y2="1148.4" fill="#494138" stroke="#ebbe50" stroke-miterlimit="10" stroke-width="15"/><line x1="1688.6" y1="-243.4" x2="399" y2="615.7" fill="#494138" stroke="#ebbe50" stroke-miterlimit="10" stroke-width="15"/><polygon points="1124 500 1050.2 549.2 1050.2 704.8 817.2 704.8 612.7 841.3 408.2 704.8 175.1 704.8 175.1 549.2 101.4 500 175.1 450.8 175.1 295.2 408.2 295.2 612.7 158.7 817.2 295.2 1050.2 295.2 1050.2 450.8 1124 500" fill="#494138" stroke="#ebbe50" stroke-miterlimit="10" stroke-width="15"/></g></svg>