<svg id="Layer_1" data-name="Layer 1" xmlns="http://www.w3.org/2000/svg" xmlns:xlink="http://www.w3.org/1999/xlink" width="1225.4" height="1000" viewBox="0 0 1225.4 1000"><defs><clipPath id="clip-path"><polygon points="-96.8 2379.5 -1337.9 2377.1 -1337.9 1365.6 -99.2 1360.8 -96.8 2379.5" fill="none"/></clipPath><clipPath id="clip-path-2"><rect x="-716.2" y="902.8" width="403.8" height="483.04" transform="translate(-1028.6 2288.6) rotate(180)" fill="none"/></clipPath><clipPath id="clip-path-3"><rect x="-312.4" y="902.8" width="403.8" height="483.04" transform="translate(-221 2288.6) rotate(180)" fill="none"/></clipPath><clipPath id="clip-path-4"><rect x="91.4" y="902.8" width="403.8" height="483.04" transform="translate(586.6 2288.6) rotate(180)" fill="none"/></clipPath><clipPath id="clip-path-5"><rect x="-2.3" y="-1.2" width="1231.3" height="1003.19" fill="none"/></clipPath></defs><title>Artboard 1 copy 2</title><g clip-path="url(#clip-path)"><g clip-path="url(#clip-path-2)"><line x1="-191.7" y1="841.8" x2="22.8" y2="841.8" fill="none" stroke="#ebbe50" stroke-linecap="square" stroke-miterlimit="10" stroke-width="12.29"/></g><g clip-path="url(#clip-path-3)"><circle cx="91.4" cy="1083.3" r="89" fill="none" stroke="#ebbe50" stroke-miterlimit="10" stroke-width="16.18"/><path d="M-29.3,841.8a120.7,120.7,0,0,0,241.3,0" fill="none" stroke="#ebbe50" stroke-linecap="square" stroke-miterlimit="10" stroke-width="12.29"/><line x1="212.1" y1="841.8" x2="426.6" y2="841.8" fill="none" stroke="#ebbe50" stroke-linecap="square" stroke-miterlimit="10" stroke-width="12.29"/><circle cx="91.4" cy="841.8" r="89" fill="none" stroke="#ebbe50" stroke-miterlimit="10" stroke-width="16.18"/><circle cx="91.4" cy="841.8" r="55.3" fill="none" stroke="#ebbe50" stroke-miterlimit="10" stroke-width="16.18"/><path d="M-231.9,962.8a120.7,120.7,0,0,0,120.7,120.7A120.7,120.7,0,0,0,9.4,962.8" fill="none" stroke="#ebbe50" stroke-linecap="square" stroke-miterlimit="10" stroke-width="12.29"/><line x1="9.4" y1="962.8" x2="224" y2="962.8" fill="#fff" stroke="#ebbe50" stroke-linecap="square" stroke-miterlimit="10" stroke-width="12.29"/></g><g clip-path="url(#clip-path-4)"><circle cx="495.2" cy="1083.3" r="89" fill="none" stroke="#ebbe50" stroke-miterlimit="10" stroke-width="16.18"/><circle cx="89.9" cy="1083.3" r="89" fill="none" stroke="#ebbe50" stroke-miterlimit="10" stroke-width="16.18"/><path d="M374.5,841.8a120.7,120.7,0,0,0,241.3,0" fill="none" stroke="#ebbe50" stroke-linecap="square" stroke-miterlimit="10" stroke-width="12.29"/><line x1="615.8" y1="841.8" x2="830.4" y2="841.8" fill="none" stroke="#ebbe50" stroke-linecap="square" stroke-miterlimit="10" stroke-width="12.29"/><line x1="374.5" y1="841.8" x2="210.5" y2="841.8" fill="none" stroke="#ebbe50" stroke-linecap="square" stroke-miterlimit="10" stroke-width="12.29"/><circle cx="495.2" cy="841.8" r="89" fill="none" stroke="#ebbe50" stroke-miterlimit="10" stroke-width="16.18"/><circle cx="495.2" cy="841.8" r="55.3" fill="none" stroke="#ebbe50" stroke-miterlimit="10" stroke-width="16.18"/><path d="M-30.8,841.8a120.7,120.7,0,0,0,241.3,0" fill="none" stroke="#ebbe50" stroke-linecap="square" stroke-miterlimit="10" stroke-width="12.29"/><circle cx="89.9" cy="841.8" r="89" fill="none" stroke="#ebbe50" stroke-miterlimit="10" stroke-width="16.18"/><circle cx="89.9" cy="841.8" r="55.3" fill="none" stroke="#ebbe50" stroke-miterlimit="10" stroke-width="16.18"/><path d="M171.9,962.8a120.7,120.7,0,0,0,241.3,0" fill="none" stroke="#ebbe50" stroke-linecap="square" stroke-miterlimit="10" stroke-width="12.29"/><line x1="413.2" y1="962.8" x2="627.8" y2="962.8" fill="#fff" stroke="#ebbe50" stroke-linecap="square" stroke-miterlimit="10" stroke-width="12.29"/><line x1="171.9" y1="962.8" x2="-55.7" y2="962.8" fill="#fff" stroke="#ebbe50" stroke-linecap="square" stroke-miterlimit="10" stroke-width="12.29"/><circle cx="292.5" cy="962.8" r="89" fill="none" stroke="#ebbe50" stroke-miterlimit="10" stroke-width="16.18"/><circle cx="292.5" cy="962.8" r="55.3" fill="none" stroke="#ebbe50" stroke-miterlimit="10" stroke-width="16.18"/></g></g><g clip-path="url(#clip-path-5)"><polygon points="1167.5 707.3 1167.5 707.4 1131.1 736.6 1051.6 800.6 972 736.6 935.6 707.4 935.6 707.3 1051.6 614 1167.5 707.3" fill="none" stroke="#ebbe50" stroke-miterlimit="10" stroke-width="15"/><polygon points="289.6 708.2 289.6 708.3 253.2 737.5 173.6 801.5 94.1 737.5 57.7 708.3 57.7 708.2 173.6 614.9 289.6 708.2" fill="none" stroke="#ebbe50" stroke-miterlimit="10" stroke-width="15"/><polygon points="238.8 500.6 238.8 500.7 191.3 539 87.4 622.6 -16.6 539 -64.1 500.7 -64.1 500.6 87.4 378.8 238.8 500.6" fill="none" stroke="#ebbe50" stroke-miterlimit="10" stroke-width="15"/><polygon points="1287.8 500.6 1287.8 500.7 1240.3 539 1136.3 622.6 1032.3 539 984.8 500.7 984.8 500.6 1136.3 378.8 1287.8 500.6" fill="none" stroke="#ebbe50" stroke-miterlimit="10" stroke-width="15"/><polygon points="1167.5 766 1167.5 1027.9 935.6 1027.9 935.6 766 1051.6 859.2 1167.5 766" fill="none" stroke="#ebbe50" stroke-miterlimit="10" stroke-width="15"/><polygon points="289.7 766 289.7 1027.9 57.9 1027.9 57.9 765.9 173.8 859.2 289.7 766" fill="none" stroke="#ebbe50" stroke-miterlimit="10" stroke-width="15"/><polygon points="582.4 1001.3 466.4 1094.6 350.4 1001.3 386.8 972 406.2 956.4 466.4 908 526.6 956.4 546 972 582.4 1001.3" fill="none" stroke="#ebbe50" stroke-miterlimit="10" stroke-width="15"/><polygon points="582.3 495.1 582.3 942.6 466.4 849.3 350.4 942.6 350.4 495.1 582.3 495.1" fill="none" stroke="#ebbe50" stroke-miterlimit="10" stroke-width="15"/><polygon points="875 1001.3 759 1094.6 643 1001.3 679.4 972 698.7 956.4 759 908 819.2 956.4 838.5 972 875 1001.3" fill="none" stroke="#ebbe50" stroke-miterlimit="10" stroke-width="15"/><polygon points="874.9 495.1 874.9 942.6 759 849.3 643 942.6 643 495.1 874.9 495.1" fill="none" stroke="#ebbe50" stroke-miterlimit="10" stroke-width="15"/><polygon points="289.7 294.5 289.7 294.6 173.8 387.9 57.9 294.6 57.9 294.5 94.2 265.3 173.8 201.2 253.4 265.3 289.7 294.5" fill="none" stroke="#ebbe50" stroke-miterlimit="10" stroke-width="15"/><polygon points="289.7 -26 289.7 235.9 173.8 142.6 57.9 235.9 57.9 -26 289.7 -26" fill="none" stroke="#ebbe50" stroke-miterlimit="10" stroke-width="15"/><polygon points="582.4 0.6 546 29.9 526.6 45.5 466.4 93.9 406.2 45.5 386.8 29.9 350.4 0.6 466.4 -92.7 582.4 0.6" fill="none" stroke="#ebbe50" stroke-miterlimit="10" stroke-width="15"/><polygon points="582.3 59.3 582.3 506.8 350.4 506.8 350.4 59.2 466.4 152.5 582.3 59.3" fill="none" stroke="#ebbe50" stroke-miterlimit="10" stroke-width="15"/><polygon points="875 0.6 838.5 29.9 819.2 45.5 759 93.9 698.7 45.5 679.4 29.9 643 0.6 759 -92.7 875 0.6" fill="none" stroke="#ebbe50" stroke-miterlimit="10" stroke-width="15"/><polygon points="874.9 59.3 874.9 506.8 643 506.8 643 59.3 759 152.5 874.9 59.3" fill="none" stroke="#ebbe50" stroke-miterlimit="10" stroke-width="15"/><polygon points="1167.5 294.5 1167.5 294.6 1051.6 387.9 935.6 294.6 935.6 294.5 972 265.3 1051.6 201.2 1131.1 265.3 1167.5 294.5" fill="none" stroke="#ebbe50" stroke-miterlimit="10" stroke-width="15"/><polygon points="1167.5 -26 1167.5 235.9 1051.6 142.6 935.6 235.9 935.6 -26 1167.5 -26" fill="none" stroke="#ebbe50" stroke-miterlimit="10" stroke-width="15"/><polygon points="1124 500 1050.2 559.3 1050.2 704.8 869.4 704.8 612.7 911.3 356 704.8 175.1 704.8 175.1 559.3 101.4 500 175.1 440.7 175.1 295.2 356 295.2 612.7 88.7 869.4 295.2 1050.2 295.2 1050.2 440.7 1124 500" fill="#494138" stroke="#ebbe50" stroke-miterlimit="10" stroke-width="15"/></g></svg>