<svg id="Layer_1" data-name="Layer 1" xmlns="http://www.w3.org/2000/svg" xmlns:xlink="http://www.w3.org/1999/xlink" width="1225.4" height="1000" viewBox="0 0 1225.4 1000"><defs><clipPath id="clip-path"><rect x="-3.6" y="-4" width="1234.6" height="1006.83" fill="none"/></clipPath><clipPath id="clip-path-2"><rect x="1418.4" y="-3.7" width="1231.5" height="1004.84" fill="none"/></clipPath></defs><title>Artboard 1 copy 4</title><g clip-path="url(#clip-path)"><rect x="498.8" y="704.8" width="227.8" height="227.78" fill="none" stroke="#ebbe50" stroke-miterlimit="10" stroke-width="14.84"/><rect x="654.2" y="812.2" width="227.8" height="227.78" fill="none" stroke="#ebbe50" stroke-miterlimit="10" stroke-width="14.84"/><rect x="345.6" y="812.2" width="227.8" height="227.78" fill="none" stroke="#ebbe50" stroke-miterlimit="10" stroke-width="14.84"/><rect x="822.2" y="704.8" width="227.8" height="227.78" fill="none" stroke="#ebbe50" stroke-miterlimit="10" stroke-width="14.84"/><rect x="936.5" y="819.1" width="227.8" height="227.78" fill="none" stroke="#ebbe50" stroke-miterlimit="10" stroke-width="14.84"/><rect x="936.5" y="386.1" width="227.8" height="227.78" fill="none" stroke="#ebbe50" stroke-miterlimit="10" stroke-width="14.84"/><rect x="1050.4" y="224.5" width="227.8" height="227.78" fill="none" stroke="#ebbe50" stroke-miterlimit="10" stroke-width="14.84"/><rect x="1050.4" y="547.7" width="227.8" height="227.78" fill="none" stroke="#ebbe50" stroke-miterlimit="10" stroke-width="14.84"/><rect x="-52.6" y="224.5" width="227.8" height="227.78" fill="none" stroke="#ebbe50" stroke-miterlimit="10" stroke-width="14.84"/><rect x="-52.6" y="547.7" width="227.8" height="227.78" fill="none" stroke="#ebbe50" stroke-miterlimit="10" stroke-width="14.84"/><rect x="175" y="704.8" width="227.8" height="227.78" fill="none" stroke="#ebbe50" stroke-miterlimit="10" stroke-width="14.84"/><rect x="61.9" y="817.9" width="227.8" height="227.78" fill="none" stroke="#ebbe50" stroke-miterlimit="10" stroke-width="14.84"/><rect x="61.9" y="386.1" width="227.8" height="227.78" fill="none" stroke="#ebbe50" stroke-miterlimit="10" stroke-width="14.84"/><rect x="498.8" y="67.4" width="227.8" height="227.78" fill="none" stroke="#ebbe50" stroke-miterlimit="10" stroke-width="14.84"/><rect x="654.2" y="-40" width="227.8" height="227.78" fill="none" stroke="#ebbe50" stroke-miterlimit="10" stroke-width="14.84"/><rect x="345.6" y="-40" width="227.8" height="227.78" fill="none" stroke="#ebbe50" stroke-miterlimit="10" stroke-width="14.84"/><polygon points="1124 500 1050.2 549.2 1050.2 704.8 817.2 704.8 612.7 841.3 408.2 704.8 175.1 704.8 175.1 549.2 101.4 500 175.1 450.8 175.1 295.2 408.2 295.2 612.7 158.7 817.2 295.2 1050.2 295.2 1050.2 450.8 1124 500" fill="#494138" stroke="#ebbe50" stroke-miterlimit="10" stroke-width="15"/><rect x="822.2" y="67.4" width="227.8" height="227.78" fill="none" stroke="#ebbe50" stroke-miterlimit="10" stroke-width="14.84"/><rect x="936.5" y="-46.8" width="227.8" height="227.78" fill="none" stroke="#ebbe50" stroke-miterlimit="10" stroke-width="14.84"/><rect x="175" y="67.4" width="227.8" height="227.78" fill="none" stroke="#ebbe50" stroke-miterlimit="10" stroke-width="14.84"/><rect x="61.9" y="-45.7" width="227.8" height="227.78" fill="none" stroke="#ebbe50" stroke-miterlimit="10" stroke-width="14.84"/></g><g clip-path="url(#clip-path-2)"><polygon points="1328.1 156 1478.9 55.4 1328.1 -45.3 1177.4 55.4 1328.1 156" fill="none" stroke="#ebbe50" stroke-miterlimit="10" stroke-width="15"/><polygon points="1328.1 1043.1 1478.9 942.5 1328.1 841.9 1177.4 942.5 1328.1 1043.1" fill="none" stroke="#ebbe50" stroke-miterlimit="10" stroke-width="15"/></g></svg>