<svg id="Layer_1" data-name="Layer 1" xmlns="http://www.w3.org/2000/svg" xmlns:xlink="http://www.w3.org/1999/xlink" width="1225.4" height="1000" viewBox="0 0 1225.4 1000"><defs><clipPath id="clip-path"><polygon points="-183 1002.9 -1424.1 1000.5 -1424.1 -11 -185.4 -15.8 -183 1002.9" fill="none"/></clipPath><clipPath id="clip-path-2"><rect x="-398.6" y="492.3" width="403.8" height="483.04" transform="translate(-393.4 1467.6) rotate(180)" fill="none"/></clipPath><clipPath id="clip-path-3"><rect x="-398.6" y="975.3" width="403.8" height="483.04" transform="translate(-393.4 2433.7) rotate(180)" fill="none"/></clipPath><clipPath id="clip-path-4"><rect x="5.2" y="492.3" width="403.8" height="483.04" transform="translate(414.2 1467.6) rotate(180)" fill="none"/></clipPath><clipPath id="clip-path-5"><rect x="5.2" y="975.3" width="403.8" height="483.04" transform="translate(414.2 2433.7) rotate(180)" fill="none"/></clipPath><clipPath id="clip-path-6"><rect x="-398.6" y="-473.8" width="403.8" height="483.04" transform="translate(-393.4 -464.6) rotate(180)" fill="none"/></clipPath><clipPath id="clip-path-7"><rect x="-398.6" y="9.2" width="403.8" height="483.04" transform="translate(-393.4 501.5) rotate(180)" fill="none"/></clipPath><clipPath id="clip-path-8"><rect x="5.2" y="-473.8" width="403.8" height="483.04" transform="translate(414.2 -464.6) rotate(180)" fill="none"/></clipPath><clipPath id="clip-path-9"><rect x="5.2" y="9.2" width="403.8" height="483.04" transform="translate(414.2 501.5) rotate(180)" fill="none"/></clipPath></defs><title>Artboard 1 copy</title><g clip-path="url(#clip-path)"><g clip-path="url(#clip-path-2)"><path d="M-115.5,914.4a120.7,120.7,0,1,0,241.3,0" fill="none" stroke="#ebbe50" stroke-linecap="square" stroke-miterlimit="10" stroke-width="12.29"/><line x1="125.8" y1="914.4" x2="340.4" y2="914.4" fill="none" stroke="#ebbe50" stroke-linecap="square" stroke-miterlimit="10" stroke-width="12.29"/><circle cx="5.2" cy="914.4" r="89" fill="none" stroke="#ebbe50" stroke-miterlimit="10" stroke-width="16.18"/><circle cx="5.2" cy="914.4" r="55.3" fill="none" stroke="#ebbe50" stroke-miterlimit="10" stroke-width="16.18"/><path d="M-115.5,672.8a120.7,120.7,0,1,0,241.3,0" fill="none" stroke="#ebbe50" stroke-linecap="square" stroke-miterlimit="10" stroke-width="12.29"/><line x1="125.8" y1="672.8" x2="340.4" y2="672.8" fill="none" stroke="#ebbe50" stroke-linecap="square" stroke-miterlimit="10" stroke-width="12.29"/><circle cx="5.2" cy="672.8" r="89" fill="none" stroke="#ebbe50" stroke-miterlimit="10" stroke-width="16.18"/><circle cx="5.2" cy="672.8" r="55.3" fill="none" stroke="#ebbe50" stroke-miterlimit="10" stroke-width="16.18"/><path d="M-115.5,431.3a120.7,120.7,0,0,0,241.3,0" fill="none" stroke="#ebbe50" stroke-linecap="square" stroke-miterlimit="10" stroke-width="12.29"/><line x1="125.8" y1="431.3" x2="340.4" y2="431.3" fill="none" stroke="#ebbe50" stroke-linecap="square" stroke-miterlimit="10" stroke-width="12.29"/><circle cx="5.2" cy="431.3" r="89" fill="none" stroke="#ebbe50" stroke-miterlimit="10" stroke-width="16.18"/><circle cx="5.2" cy="431.3" r="55.3" fill="none" stroke="#ebbe50" stroke-miterlimit="10" stroke-width="16.18"/><line x1="-76.8" y1="793.4" x2="137.8" y2="793.4" fill="#fff" stroke="#ebbe50" stroke-linecap="square" stroke-miterlimit="10" stroke-width="12.29"/><line x1="-76.8" y1="552.2" x2="137.8" y2="552.2" fill="#fff" stroke="#ebbe50" stroke-linecap="square" stroke-miterlimit="10" stroke-width="12.29"/></g><g clip-path="url(#clip-path-3)"><path d="M-115.5,914.4a120.7,120.7,0,1,0,241.3,0" fill="none" stroke="#ebbe50" stroke-linecap="square" stroke-miterlimit="10" stroke-width="12.29"/><line x1="125.8" y1="914.4" x2="340.4" y2="914.4" fill="none" stroke="#ebbe50" stroke-linecap="square" stroke-miterlimit="10" stroke-width="12.29"/><circle cx="5.2" cy="914.4" r="89" fill="none" stroke="#ebbe50" stroke-miterlimit="10" stroke-width="16.18"/><circle cx="5.2" cy="914.4" r="55.3" fill="none" stroke="#ebbe50" stroke-miterlimit="10" stroke-width="16.18"/></g><g clip-path="url(#clip-path-4)"><path d="M288.3,914.4a120.7,120.7,0,1,0,241.3,0" fill="none" stroke="#ebbe50" stroke-linecap="square" stroke-miterlimit="10" stroke-width="12.29"/><line x1="529.6" y1="914.4" x2="744.2" y2="914.4" fill="none" stroke="#ebbe50" stroke-linecap="square" stroke-miterlimit="10" stroke-width="12.29"/><line x1="288.3" y1="914.4" x2="124.3" y2="914.4" fill="none" stroke="#ebbe50" stroke-linecap="square" stroke-miterlimit="10" stroke-width="12.29"/><circle cx="409" cy="914.4" r="89" fill="none" stroke="#ebbe50" stroke-miterlimit="10" stroke-width="16.18"/><circle cx="409" cy="914.4" r="55.3" fill="none" stroke="#ebbe50" stroke-miterlimit="10" stroke-width="16.18"/><path d="M-117,914.4a120.7,120.7,0,1,0,241.3,0" fill="none" stroke="#ebbe50" stroke-linecap="square" stroke-miterlimit="10" stroke-width="12.29"/><circle cx="3.7" cy="914.4" r="89" fill="none" stroke="#ebbe50" stroke-miterlimit="10" stroke-width="16.18"/><circle cx="3.7" cy="914.4" r="55.3" fill="none" stroke="#ebbe50" stroke-miterlimit="10" stroke-width="16.18"/><path d="M288.3,672.8a120.7,120.7,0,1,0,241.3,0" fill="none" stroke="#ebbe50" stroke-linecap="square" stroke-miterlimit="10" stroke-width="12.29"/><line x1="529.6" y1="672.8" x2="744.2" y2="672.8" fill="none" stroke="#ebbe50" stroke-linecap="square" stroke-miterlimit="10" stroke-width="12.29"/><line x1="288.3" y1="672.8" x2="124.3" y2="672.8" fill="none" stroke="#ebbe50" stroke-linecap="square" stroke-miterlimit="10" stroke-width="12.29"/><circle cx="409" cy="672.8" r="89" fill="none" stroke="#ebbe50" stroke-miterlimit="10" stroke-width="16.18"/><circle cx="409" cy="672.8" r="55.3" fill="none" stroke="#ebbe50" stroke-miterlimit="10" stroke-width="16.18"/><path d="M-117,672.8a120.7,120.7,0,1,0,241.3,0" fill="none" stroke="#ebbe50" stroke-linecap="square" stroke-miterlimit="10" stroke-width="12.29"/><circle cx="3.7" cy="672.8" r="89" fill="none" stroke="#ebbe50" stroke-miterlimit="10" stroke-width="16.18"/><circle cx="3.7" cy="672.8" r="55.3" fill="none" stroke="#ebbe50" stroke-miterlimit="10" stroke-width="16.18"/><path d="M288.3,431.3a120.7,120.7,0,0,0,241.3,0" fill="none" stroke="#ebbe50" stroke-linecap="square" stroke-miterlimit="10" stroke-width="12.29"/><line x1="529.6" y1="431.3" x2="744.2" y2="431.3" fill="none" stroke="#ebbe50" stroke-linecap="square" stroke-miterlimit="10" stroke-width="12.29"/><line x1="288.3" y1="431.3" x2="124.3" y2="431.3" fill="none" stroke="#ebbe50" stroke-linecap="square" stroke-miterlimit="10" stroke-width="12.29"/><circle cx="409" cy="431.3" r="89" fill="none" stroke="#ebbe50" stroke-miterlimit="10" stroke-width="16.18"/><circle cx="409" cy="431.3" r="55.3" fill="none" stroke="#ebbe50" stroke-miterlimit="10" stroke-width="16.18"/><path d="M-117,431.3a120.7,120.7,0,0,0,241.3,0" fill="none" stroke="#ebbe50" stroke-linecap="square" stroke-miterlimit="10" stroke-width="12.29"/><circle cx="3.7" cy="431.3" r="89" fill="none" stroke="#ebbe50" stroke-miterlimit="10" stroke-width="16.18"/><circle cx="3.7" cy="431.3" r="55.3" fill="none" stroke="#ebbe50" stroke-miterlimit="10" stroke-width="16.18"/><path d="M85.7,793.4a120.7,120.7,0,0,0,241.3,0" fill="none" stroke="#ebbe50" stroke-linecap="square" stroke-miterlimit="10" stroke-width="12.29"/><line x1="327" y1="793.4" x2="541.6" y2="793.4" fill="#fff" stroke="#ebbe50" stroke-linecap="square" stroke-miterlimit="10" stroke-width="12.29"/><line x1="85.7" y1="793.4" x2="-141.9" y2="793.4" fill="#fff" stroke="#ebbe50" stroke-linecap="square" stroke-miterlimit="10" stroke-width="12.29"/><circle cx="206.3" cy="793.4" r="89" fill="none" stroke="#ebbe50" stroke-miterlimit="10" stroke-width="16.18"/><circle cx="206.3" cy="793.4" r="55.3" fill="none" stroke="#ebbe50" stroke-miterlimit="10" stroke-width="16.18"/><path d="M85.7,552.2a120.7,120.7,0,0,0,241.3,0" fill="none" stroke="#ebbe50" stroke-linecap="square" stroke-miterlimit="10" stroke-width="12.29"/><line x1="327" y1="552.2" x2="541.6" y2="552.2" fill="#fff" stroke="#ebbe50" stroke-linecap="square" stroke-miterlimit="10" stroke-width="12.29"/><line x1="85.7" y1="552.2" x2="-141.9" y2="552.2" fill="#fff" stroke="#ebbe50" stroke-linecap="square" stroke-miterlimit="10" stroke-width="12.29"/><circle cx="206.3" cy="552.2" r="89" fill="none" stroke="#ebbe50" stroke-miterlimit="10" stroke-width="16.18"/><circle cx="206.3" cy="552.2" r="55.3" fill="none" stroke="#ebbe50" stroke-miterlimit="10" stroke-width="16.18"/><circle cx="206.3" cy="1035" r="89" fill="none" stroke="#ebbe50" stroke-miterlimit="10" stroke-width="16.18"/><circle cx="206.3" cy="1035" r="55.3" fill="none" stroke="#ebbe50" stroke-miterlimit="10" stroke-width="16.18"/></g><g clip-path="url(#clip-path-5)"><path d="M288.3,914.4a120.7,120.7,0,0,0,241.3,0" fill="none" stroke="#ebbe50" stroke-linecap="square" stroke-miterlimit="10" stroke-width="12.29"/><line x1="529.6" y1="914.4" x2="744.2" y2="914.4" fill="none" stroke="#ebbe50" stroke-linecap="square" stroke-miterlimit="10" stroke-width="12.29"/><line x1="288.3" y1="914.4" x2="124.3" y2="914.4" fill="none" stroke="#ebbe50" stroke-linecap="square" stroke-miterlimit="10" stroke-width="12.29"/><circle cx="409" cy="914.4" r="89" fill="none" stroke="#ebbe50" stroke-miterlimit="10" stroke-width="16.18"/><circle cx="409" cy="914.4" r="55.3" fill="none" stroke="#ebbe50" stroke-miterlimit="10" stroke-width="16.18"/><path d="M-117,914.4a120.7,120.7,0,0,0,241.3,0" fill="none" stroke="#ebbe50" stroke-linecap="square" stroke-miterlimit="10" stroke-width="12.29"/><circle cx="3.7" cy="914.4" r="89" fill="none" stroke="#ebbe50" stroke-miterlimit="10" stroke-width="16.18"/><circle cx="3.7" cy="914.4" r="55.3" fill="none" stroke="#ebbe50" stroke-miterlimit="10" stroke-width="16.18"/><circle cx="206.3" cy="1035.3" r="89" fill="none" stroke="#ebbe50" stroke-miterlimit="10" stroke-width="16.18"/><circle cx="206.3" cy="1035.3" r="55.3" fill="none" stroke="#ebbe50" stroke-miterlimit="10" stroke-width="16.18"/></g><g clip-path="url(#clip-path-6)"><path d="M-115.5,189.8a120.7,120.7,0,0,0,241.3,0" fill="#fff" stroke="#ebbe50" stroke-linecap="square" stroke-miterlimit="10" stroke-width="12.29"/><line x1="125.8" y1="189.8" x2="340.4" y2="189.8" fill="#fff" stroke="#ebbe50" stroke-linecap="square" stroke-miterlimit="10" stroke-width="12.29"/><circle cx="5.2" cy="189.8" r="89" fill="#fff" stroke="#ebbe50" stroke-miterlimit="10" stroke-width="16.18"/><circle cx="5.2" cy="189.8" r="55.3" fill="#fff" stroke="#ebbe50" stroke-miterlimit="10" stroke-width="16.18"/><path d="M-115.5-51.7A120.7,120.7,0,0,0,5.2,69,120.7,120.7,0,0,0,125.9-51.7" fill="none" stroke="#ebbe50" stroke-linecap="square" stroke-miterlimit="10" stroke-width="12.29"/><circle cx="5.2" cy="-51.7" r="89" fill="none" stroke="#ebbe50" stroke-miterlimit="10" stroke-width="16.18"/><circle cx="5.2" cy="-51.7" r="55.3" fill="none" stroke="#ebbe50" stroke-miterlimit="10" stroke-width="16.18"/><line x1="-76.8" y1="68.9" x2="137.8" y2="68.9" fill="none" stroke="#ebbe50" stroke-linecap="square" stroke-miterlimit="10" stroke-width="12.29"/></g><g clip-path="url(#clip-path-7)"><path d="M-115.5,672.8a120.7,120.7,0,1,0,241.3,0" fill="#fff" stroke="#ebbe50" stroke-linecap="square" stroke-miterlimit="10" stroke-width="12.29"/><line x1="125.8" y1="672.8" x2="340.4" y2="672.8" fill="#fff" stroke="#ebbe50" stroke-linecap="square" stroke-miterlimit="10" stroke-width="12.29"/><circle cx="5.2" cy="672.8" r="89" fill="#fff" stroke="#ebbe50" stroke-miterlimit="10" stroke-width="16.18"/><circle cx="5.2" cy="672.8" r="55.3" fill="#fff" stroke="#ebbe50" stroke-miterlimit="10" stroke-width="16.18"/><path d="M-115.5,431.3a120.7,120.7,0,0,0,241.3,0" fill="none" stroke="#ebbe50" stroke-linecap="square" stroke-miterlimit="10" stroke-width="12.29"/><line x1="125.8" y1="431.3" x2="340.4" y2="431.3" fill="none" stroke="#ebbe50" stroke-linecap="square" stroke-miterlimit="10" stroke-width="12.29"/><circle cx="5.2" cy="431.3" r="89" fill="none" stroke="#ebbe50" stroke-miterlimit="10" stroke-width="16.18"/><circle cx="5.2" cy="431.3" r="55.3" fill="none" stroke="#ebbe50" stroke-miterlimit="10" stroke-width="16.18"/><path d="M-115.5,189.8a120.7,120.7,0,0,0,241.3,0" fill="none" stroke="#ebbe50" stroke-linecap="square" stroke-miterlimit="10" stroke-width="12.29"/><line x1="125.8" y1="189.8" x2="340.4" y2="189.8" fill="none" stroke="#ebbe50" stroke-linecap="square" stroke-miterlimit="10" stroke-width="12.29"/><circle cx="5.2" cy="189.8" r="89" fill="none" stroke="#ebbe50" stroke-miterlimit="10" stroke-width="16.18"/><circle cx="5.2" cy="189.8" r="55.3" fill="none" stroke="#ebbe50" stroke-miterlimit="10" stroke-width="16.18"/><path d="M-115.5-51.7A120.7,120.7,0,0,0,5.2,69,120.7,120.7,0,0,0,125.9-51.7" fill="none" stroke="#ebbe50" stroke-linecap="square" stroke-miterlimit="10" stroke-width="12.29"/><circle cx="5.2" cy="-51.7" r="89" fill="none" stroke="#ebbe50" stroke-miterlimit="10" stroke-width="16.18"/><circle cx="5.2" cy="-51.7" r="55.3" fill="none" stroke="#ebbe50" stroke-miterlimit="10" stroke-width="16.18"/><line x1="-76.8" y1="310.4" x2="137.8" y2="310.4" fill="#fff" stroke="#ebbe50" stroke-linecap="square" stroke-miterlimit="10" stroke-width="12.29"/><line x1="-76.8" y1="69.2" x2="137.8" y2="69.2" fill="#fff" stroke="#ebbe50" stroke-linecap="square" stroke-miterlimit="10" stroke-width="12.29"/><line x1="-76.8" y1="552" x2="137.8" y2="552" fill="none" stroke="#ebbe50" stroke-linecap="square" stroke-miterlimit="10" stroke-width="12.29"/></g><g clip-path="url(#clip-path-8)"><path d="M288.3,189.8a120.7,120.7,0,0,0,241.3,0" fill="#fff" stroke="#ebbe50" stroke-linecap="square" stroke-miterlimit="10" stroke-width="12.29"/><line x1="529.6" y1="189.8" x2="744.2" y2="189.8" fill="#fff" stroke="#ebbe50" stroke-linecap="square" stroke-miterlimit="10" stroke-width="12.29"/><line x1="288.3" y1="189.8" x2="124.3" y2="189.8" fill="#fff" stroke="#ebbe50" stroke-linecap="square" stroke-miterlimit="10" stroke-width="12.29"/><circle cx="409" cy="189.8" r="89" fill="#fff" stroke="#ebbe50" stroke-miterlimit="10" stroke-width="16.18"/><circle cx="409" cy="189.8" r="55.3" fill="#fff" stroke="#ebbe50" stroke-miterlimit="10" stroke-width="16.18"/><path d="M-117,189.8a120.7,120.7,0,0,0,241.3,0" fill="#fff" stroke="#ebbe50" stroke-linecap="square" stroke-miterlimit="10" stroke-width="12.29"/><circle cx="3.7" cy="189.8" r="89" fill="#fff" stroke="#ebbe50" stroke-miterlimit="10" stroke-width="16.18"/><circle cx="3.7" cy="189.8" r="55.3" fill="#fff" stroke="#ebbe50" stroke-miterlimit="10" stroke-width="16.18"/><path d="M288.3-51.7A120.7,120.7,0,0,0,409,69,120.7,120.7,0,0,0,529.6-51.7" fill="none" stroke="#ebbe50" stroke-linecap="square" stroke-miterlimit="10" stroke-width="12.29"/><circle cx="409" cy="-51.7" r="89" fill="none" stroke="#ebbe50" stroke-miterlimit="10" stroke-width="16.18"/><circle cx="409" cy="-51.7" r="55.3" fill="none" stroke="#ebbe50" stroke-miterlimit="10" stroke-width="16.18"/><path d="M-117-51.7A120.7,120.7,0,0,0,3.7,69,120.7,120.7,0,0,0,124.4-51.7" fill="none" stroke="#ebbe50" stroke-linecap="square" stroke-miterlimit="10" stroke-width="12.29"/><circle cx="3.7" cy="-51.7" r="89" fill="none" stroke="#ebbe50" stroke-miterlimit="10" stroke-width="16.18"/><circle cx="3.7" cy="-51.7" r="55.3" fill="none" stroke="#ebbe50" stroke-miterlimit="10" stroke-width="16.18"/><path d="M85.7,68.9a120.7,120.7,0,0,0,241.3,0" fill="none" stroke="#ebbe50" stroke-linecap="square" stroke-miterlimit="10" stroke-width="12.29"/><line x1="327" y1="68.9" x2="541.6" y2="68.9" fill="none" stroke="#ebbe50" stroke-linecap="square" stroke-miterlimit="10" stroke-width="12.29"/><line x1="85.7" y1="68.9" x2="-141.9" y2="68.9" fill="none" stroke="#ebbe50" stroke-linecap="square" stroke-miterlimit="10" stroke-width="12.29"/><circle cx="206.3" cy="68.9" r="89" fill="none" stroke="#ebbe50" stroke-miterlimit="10" stroke-width="16.18"/><circle cx="206.3" cy="68.9" r="55.3" fill="none" stroke="#ebbe50" stroke-miterlimit="10" stroke-width="16.18"/></g><g clip-path="url(#clip-path-9)"><path d="M288.3,672.8a120.7,120.7,0,0,0,241.3,0" fill="#fff" stroke="#ebbe50" stroke-linecap="square" stroke-miterlimit="10" stroke-width="12.29"/><line x1="529.6" y1="672.8" x2="744.2" y2="672.8" fill="#fff" stroke="#ebbe50" stroke-linecap="square" stroke-miterlimit="10" stroke-width="12.29"/><line x1="288.3" y1="672.8" x2="124.3" y2="672.8" fill="#fff" stroke="#ebbe50" stroke-linecap="square" stroke-miterlimit="10" stroke-width="12.29"/><circle cx="409" cy="672.8" r="89" fill="#fff" stroke="#ebbe50" stroke-miterlimit="10" stroke-width="16.18"/><circle cx="409" cy="672.8" r="55.3" fill="#fff" stroke="#ebbe50" stroke-miterlimit="10" stroke-width="16.18"/><path d="M-117,672.8a120.7,120.7,0,0,0,241.3,0" fill="#fff" stroke="#ebbe50" stroke-linecap="square" stroke-miterlimit="10" stroke-width="12.29"/><circle cx="3.7" cy="672.8" r="89" fill="#fff" stroke="#ebbe50" stroke-miterlimit="10" stroke-width="16.18"/><circle cx="3.7" cy="672.8" r="55.3" fill="#fff" stroke="#ebbe50" stroke-miterlimit="10" stroke-width="16.18"/><path d="M288.3,431.3a120.7,120.7,0,0,0,241.3,0" fill="none" stroke="#ebbe50" stroke-linecap="square" stroke-miterlimit="10" stroke-width="12.29"/><line x1="529.6" y1="431.3" x2="744.2" y2="431.3" fill="none" stroke="#ebbe50" stroke-linecap="square" stroke-miterlimit="10" stroke-width="12.29"/><line x1="288.3" y1="431.3" x2="124.3" y2="431.3" fill="none" stroke="#ebbe50" stroke-linecap="square" stroke-miterlimit="10" stroke-width="12.29"/><circle cx="409" cy="431.3" r="89" fill="none" stroke="#ebbe50" stroke-miterlimit="10" stroke-width="16.18"/><circle cx="409" cy="431.3" r="55.3" fill="none" stroke="#ebbe50" stroke-miterlimit="10" stroke-width="16.18"/><path d="M-117,431.3a120.7,120.7,0,0,0,241.3,0" fill="none" stroke="#ebbe50" stroke-linecap="square" stroke-miterlimit="10" stroke-width="12.29"/><circle cx="3.7" cy="431.3" r="89" fill="none" stroke="#ebbe50" stroke-miterlimit="10" stroke-width="16.18"/><circle cx="3.7" cy="431.3" r="55.3" fill="none" stroke="#ebbe50" stroke-miterlimit="10" stroke-width="16.18"/><path d="M288.3,189.8a120.7,120.7,0,0,0,241.3,0" fill="none" stroke="#ebbe50" stroke-linecap="square" stroke-miterlimit="10" stroke-width="12.29"/><line x1="529.6" y1="189.8" x2="744.2" y2="189.8" fill="none" stroke="#ebbe50" stroke-linecap="square" stroke-miterlimit="10" stroke-width="12.29"/><line x1="288.3" y1="189.8" x2="124.3" y2="189.8" fill="none" stroke="#ebbe50" stroke-linecap="square" stroke-miterlimit="10" stroke-width="12.29"/><circle cx="409" cy="189.8" r="89" fill="none" stroke="#ebbe50" stroke-miterlimit="10" stroke-width="16.18"/><circle cx="409" cy="189.8" r="55.3" fill="none" stroke="#ebbe50" stroke-miterlimit="10" stroke-width="16.18"/><path d="M-117,189.8a120.7,120.7,0,0,0,241.3,0" fill="none" stroke="#ebbe50" stroke-linecap="square" stroke-miterlimit="10" stroke-width="12.29"/><circle cx="3.7" cy="189.8" r="89" fill="none" stroke="#ebbe50" stroke-miterlimit="10" stroke-width="16.18"/><circle cx="3.7" cy="189.8" r="55.3" fill="none" stroke="#ebbe50" stroke-miterlimit="10" stroke-width="16.18"/><path d="M288.3-51.7A120.7,120.7,0,0,0,409,69,120.7,120.7,0,0,0,529.6-51.7" fill="none" stroke="#ebbe50" stroke-linecap="square" stroke-miterlimit="10" stroke-width="12.29"/><circle cx="409" cy="-51.7" r="89" fill="none" stroke="#ebbe50" stroke-miterlimit="10" stroke-width="16.18"/><circle cx="409" cy="-51.7" r="55.3" fill="none" stroke="#ebbe50" stroke-miterlimit="10" stroke-width="16.18"/><path d="M-117-51.7A120.7,120.7,0,0,0,3.7,69,120.7,120.7,0,0,0,124.4-51.7" fill="none" stroke="#ebbe50" stroke-linecap="square" stroke-miterlimit="10" stroke-width="12.29"/><circle cx="3.7" cy="-51.7" r="89" fill="none" stroke="#ebbe50" stroke-miterlimit="10" stroke-width="16.18"/><circle cx="3.7" cy="-51.7" r="55.3" fill="none" stroke="#ebbe50" stroke-miterlimit="10" stroke-width="16.18"/><path d="M85.7,310.4a120.7,120.7,0,1,0,241.3,0" fill="none" stroke="#ebbe50" stroke-linecap="square" stroke-miterlimit="10" stroke-width="12.29"/><line x1="327" y1="310.4" x2="541.6" y2="310.4" fill="#fff" stroke="#ebbe50" stroke-linecap="square" stroke-miterlimit="10" stroke-width="12.29"/><line x1="85.7" y1="310.4" x2="-141.9" y2="310.4" fill="#fff" stroke="#ebbe50" stroke-linecap="square" stroke-miterlimit="10" stroke-width="12.29"/><circle cx="206.3" cy="310.4" r="89" fill="none" stroke="#ebbe50" stroke-miterlimit="10" stroke-width="16.18"/><circle cx="206.3" cy="310.4" r="55.3" fill="none" stroke="#ebbe50" stroke-miterlimit="10" stroke-width="16.18"/><path d="M85.7,69.2a120.7,120.7,0,0,0,241.3,0" fill="none" stroke="#ebbe50" stroke-linecap="square" stroke-miterlimit="10" stroke-width="12.29"/><line x1="327" y1="69.2" x2="541.6" y2="69.2" fill="#fff" stroke="#ebbe50" stroke-linecap="square" stroke-miterlimit="10" stroke-width="12.29"/><line x1="85.7" y1="69.2" x2="-141.9" y2="69.2" fill="#fff" stroke="#ebbe50" stroke-linecap="square" stroke-miterlimit="10" stroke-width="12.29"/><circle cx="206.3" cy="69.2" r="89" fill="none" stroke="#ebbe50" stroke-miterlimit="10" stroke-width="16.18"/><circle cx="206.3" cy="69.2" r="55.3" fill="none" stroke="#ebbe50" stroke-miterlimit="10" stroke-width="16.18"/><path d="M85.7,552A120.7,120.7,0,1,0,327,552" fill="none" stroke="#ebbe50" stroke-linecap="square" stroke-miterlimit="10" stroke-width="12.29"/><line x1="327" y1="552" x2="541.6" y2="552" fill="none" stroke="#ebbe50" stroke-linecap="square" stroke-miterlimit="10" stroke-width="12.29"/><line x1="85.7" y1="552" x2="-141.9" y2="552" fill="none" stroke="#ebbe50" stroke-linecap="square" stroke-miterlimit="10" stroke-width="12.29"/><circle cx="206.3" cy="552" r="89" fill="none" stroke="#ebbe50" stroke-miterlimit="10" stroke-width="16.18"/><circle cx="206.3" cy="552" r="55.3" fill="none" stroke="#ebbe50" stroke-miterlimit="10" stroke-width="16.18"/></g></g><line x1="613.7" y1="-15.3" x2="613.7" y2="1013.2" fill="none" stroke="#ebbe50" stroke-miterlimit="10" stroke-width="15.43"/><line x1="-27.6" y1="498.9" x2="1254.9" y2="498.9" fill="none" stroke="#ebbe50" stroke-miterlimit="10" stroke-width="17.23"/><line x1="1227.3" y1="-4.3" x2="-6.3" y2="1004" fill="none" stroke="#ebbe50" stroke-miterlimit="10" stroke-width="15.43"/><line x1="939.2" y1="-180.7" x2="-294.3" y2="827.6" fill="none" stroke="#ebbe50" stroke-miterlimit="10" stroke-width="15.43"/><line x1="1371.3" y1="292" x2="137.8" y2="1300.3" fill="none" stroke="#ebbe50" stroke-miterlimit="10" stroke-width="15.43"/><line x1="-6.3" y1="-4.3" x2="1227.3" y2="1004" fill="none" stroke="#ebbe50" stroke-miterlimit="10" stroke-width="15.43"/><line x1="222.7" y1="-233.2" x2="1456.2" y2="775" fill="none" stroke="#ebbe50" stroke-miterlimit="10" stroke-width="15.43"/><line x1="-226" y1="228.4" x2="1007.5" y2="1236.6" fill="none" stroke="#ebbe50" stroke-miterlimit="10" stroke-width="15.43"/><rect x="197" y="84.2" width="831.4" height="831.42" fill="none"/><rect x="-6.3" y="-4.3" width="1233.5" height="1008.23" fill="none"/><polygon points="1124 500 1050.2 559.3 1050.2 704.8 869.4 704.8 612.7 911.3 356 704.8 175.1 704.8 175.1 559.3 101.4 500 175.1 440.7 175.1 295.2 356 295.2 612.7 88.7 869.4 295.2 1050.2 295.2 1050.2 440.7 1124 500" fill="#494138" stroke="#ebbe50" stroke-miterlimit="10" stroke-width="15"/></svg>