<svg id="Layer_1" data-name="Layer 1" xmlns="http://www.w3.org/2000/svg" xmlns:xlink="http://www.w3.org/1999/xlink" width="1225.4" height="1000" viewBox="0 0 1225.4 1000"><defs><clipPath id="clip-path"><rect x="-4" y="-3.7" width="1231.5" height="1004.84" fill="none"/></clipPath><clipPath id="clip-path-2"><rect x="1420.3" y="-2.1" width="1227.9" height="1000.52" fill="none"/></clipPath></defs><title>Artboard 1 copy 5</title><g clip-path="url(#clip-path)"><polygon points="612.7 158.9 461.9 58.3 612.7 -42.3 763.4 58.3 612.7 158.9" fill="none" stroke="#ebbe50" stroke-miterlimit="10" stroke-width="15"/><polygon points="792.9 276.5 642.2 175.8 792.9 75.2 943.7 175.8 792.9 276.5" fill="none" stroke="#ebbe50" stroke-miterlimit="10" stroke-width="15"/><polygon points="971.2 396.4 820.4 295.8 971.2 195.1 1121.9 295.8 971.2 396.4" fill="none" stroke="#ebbe50" stroke-miterlimit="10" stroke-width="15"/><polygon points="786.6 39.1 635.9 -61.5 786.6 -162.1 937.4 -61.5 786.6 39.1" fill="none" stroke="#ebbe50" stroke-miterlimit="10" stroke-width="15"/><polygon points="966.8 156.7 816.1 56.1 966.8 -44.6 1117.6 56.1 966.8 156.7" fill="none" stroke="#ebbe50" stroke-miterlimit="10" stroke-width="15"/><polygon points="1318.4 156.7 1167.6 56.1 1318.4 -44.6 1469.1 56.1 1318.4 156.7" fill="none" stroke="#ebbe50" stroke-miterlimit="10" stroke-width="15"/><polygon points="1145.1 276.6 994.4 176 1145.1 75.4 1295.9 176 1145.1 276.6" fill="none" stroke="#ebbe50" stroke-miterlimit="10" stroke-width="15"/><polygon points="1143.1 38.3 992.4 -62.4 1143.1 -163 1293.9 -62.4 1143.1 38.3" fill="none" stroke="#ebbe50" stroke-miterlimit="10" stroke-width="15"/><polygon points="437.2 276.5 587.9 175.8 437.2 75.2 286.4 175.8 437.2 276.5" fill="none" stroke="#ebbe50" stroke-miterlimit="10" stroke-width="15"/><polygon points="258.9 396.4 409.6 295.8 258.9 195.1 108.1 295.8 258.9 396.4" fill="none" stroke="#ebbe50" stroke-miterlimit="10" stroke-width="15"/><polygon points="438.6 38.5 287.9 -62.2 438.6 -162.8 589.4 -62.2 438.6 38.5" fill="none" stroke="#ebbe50" stroke-miterlimit="10" stroke-width="15"/><polygon points="263.1 156 413.8 55.4 263.1 -45.3 112.3 55.4 263.1 156" fill="none" stroke="#ebbe50" stroke-miterlimit="10" stroke-width="15"/><polygon points="84.8 275.9 235.6 175.3 84.8 74.7 -65.9 175.3 84.8 275.9" fill="none" stroke="#ebbe50" stroke-miterlimit="10" stroke-width="15"/><polygon points="84.8 37.7 235.6 -63 84.8 -163.6 -65.9 -63 84.8 37.7" fill="none" stroke="#ebbe50" stroke-miterlimit="10" stroke-width="15"/><polygon points="-94.3 156 56.4 55.4 -94.3 -45.3 -245.1 55.4 -94.3 156" fill="none" stroke="#ebbe50" stroke-miterlimit="10" stroke-width="15"/><polygon points="437.2 1163.6 587.9 1063 437.2 962.4 286.4 1063 437.2 1163.6" fill="none" stroke="#ebbe50" stroke-miterlimit="10" stroke-width="15"/><polygon points="438.6 925.6 287.9 825 438.6 724.3 589.4 825 438.6 925.6" fill="none" stroke="#ebbe50" stroke-miterlimit="10" stroke-width="15"/><polygon points="263.1 1043.1 413.8 942.5 263.1 841.9 112.3 942.5 263.1 1043.1" fill="none" stroke="#ebbe50" stroke-miterlimit="10" stroke-width="15"/><polygon points="84.8 1163.1 235.6 1062.4 84.8 961.8 -65.9 1062.4 84.8 1163.1" fill="none" stroke="#ebbe50" stroke-miterlimit="10" stroke-width="15"/><polygon points="84.8 924.8 235.6 824.2 84.8 723.6 -65.9 824.2 84.8 924.8" fill="none" stroke="#ebbe50" stroke-miterlimit="10" stroke-width="15"/><polygon points="1148.7 1163.6 1299.5 1063 1148.7 962.4 998 1063 1148.7 1163.6" fill="none" stroke="#ebbe50" stroke-miterlimit="10" stroke-width="15"/><polygon points="1149.2 925.6 998.4 825 1149.2 724.3 1299.9 825 1149.2 925.6" fill="none" stroke="#ebbe50" stroke-miterlimit="10" stroke-width="15"/><polygon points="971.7 1043.1 1122.4 942.5 971.7 841.9 820.9 942.5 971.7 1043.1" fill="none" stroke="#ebbe50" stroke-miterlimit="10" stroke-width="15"/><polygon points="793.4 1163.1 944.1 1062.4 793.4 961.8 642.6 1062.4 793.4 1163.1" fill="none" stroke="#ebbe50" stroke-miterlimit="10" stroke-width="15"/><polygon points="793.4 924.8 944.1 824.2 793.4 723.6 642.6 824.2 793.4 924.8" fill="none" stroke="#ebbe50" stroke-miterlimit="10" stroke-width="15"/><polygon points="-94.3 1043.1 56.4 942.5 -94.3 841.9 -245.1 942.5 -94.3 1043.1" fill="none" stroke="#ebbe50" stroke-miterlimit="10" stroke-width="15"/><polygon points="1326.3 1044.1 1477.1 943.5 1326.3 842.9 1175.6 943.5 1326.3 1044.1" fill="none" stroke="#ebbe50" stroke-miterlimit="10" stroke-width="15"/><polygon points="175.7 601.7 326.5 501.1 175.7 400.5 25 501.1 175.7 601.7" fill="none" stroke="#ebbe50" stroke-miterlimit="10" stroke-width="15"/><polygon points="-2.6 721.6 148.2 621 -2.6 520.4 -153.3 621 -2.6 721.6" fill="none" stroke="#ebbe50" stroke-miterlimit="10" stroke-width="15"/><polygon points="-2.6 483.4 148.2 382.8 -2.6 282.1 -153.3 382.8 -2.6 483.4" fill="none" stroke="#ebbe50" stroke-miterlimit="10" stroke-width="15"/><polygon points="1049.8 601.7 899.1 501.1 1049.8 400.5 1200.6 501.1 1049.8 601.7" fill="none" stroke="#ebbe50" stroke-miterlimit="10" stroke-width="15"/><polygon points="1228.1 721.6 1077.4 621 1228.1 520.4 1378.9 621 1228.1 721.6" fill="none" stroke="#ebbe50" stroke-miterlimit="10" stroke-width="15"/><polygon points="1228.1 483.4 1077.4 382.8 1228.1 282.1 1378.9 382.8 1228.1 483.4" fill="none" stroke="#ebbe50" stroke-miterlimit="10" stroke-width="15"/><polygon points="612.7 840.4 461.9 941 612.7 1041.6 763.4 941 612.7 840.4" fill="none" stroke="#ebbe50" stroke-miterlimit="10" stroke-width="15"/><polygon points="971.2 602.9 820.4 703.5 971.2 804.1 1121.9 703.5 971.2 602.9" fill="none" stroke="#ebbe50" stroke-miterlimit="10" stroke-width="15"/><polygon points="258.9 602.9 409.6 703.5 258.9 804.1 108.1 703.5 258.9 602.9" fill="none" stroke="#ebbe50" stroke-miterlimit="10" stroke-width="15"/><polygon points="1124 500 1050.2 549.2 1050.2 704.8 817.2 704.8 612.7 841.3 408.2 704.8 175.1 704.8 175.1 549.2 101.4 500 175.1 450.8 175.1 295.2 408.2 295.2 612.7 158.7 817.2 295.2 1050.2 295.2 1050.2 450.8 1124 500" fill="#494138" stroke="#ebbe50" stroke-miterlimit="10" stroke-width="15"/></g><g clip-path="url(#clip-path-2)"><polygon points="1373.7 399.4 1222.9 500 1373.7 600.6 1524.4 500 1373.7 399.4" fill="none" stroke="#ebbe50" stroke-miterlimit="10" stroke-width="15"/><polygon points="1299.2 399.4 1148.5 500 1299.2 600.6 1450 500 1299.2 399.4" fill="none" stroke="#ebbe50" stroke-miterlimit="10" stroke-width="15"/><line x1="1050.1" y1="1282.5" x2="2339.8" y2="423.5" fill="#494138" stroke="#ebbe50" stroke-miterlimit="10" stroke-width="15"/><line x1="1118" y1="1338.4" x2="2407.6" y2="479.4" fill="#494138" stroke="#ebbe50" stroke-miterlimit="10" stroke-width="15"/><line x1="913.1" y1="1172.8" x2="2202.7" y2="313.8" fill="#494138" stroke="#ebbe50" stroke-miterlimit="10" stroke-width="15"/><line x1="980.9" y1="1228.7" x2="2270.6" y2="369.7" fill="#494138" stroke="#ebbe50" stroke-miterlimit="10" stroke-width="15"/><line x1="1050.1" y1="-281.7" x2="2339.8" y2="577.4" fill="#494138" stroke="#ebbe50" stroke-miterlimit="10" stroke-width="15"/><line x1="1118" y1="-337.6" x2="2407.6" y2="521.5" fill="#494138" stroke="#ebbe50" stroke-miterlimit="10" stroke-width="15"/><line x1="896.8" y1="-184.5" x2="2186.4" y2="674.6" fill="#494138" stroke="#ebbe50" stroke-miterlimit="10" stroke-width="15"/><line x1="699.5" y1="-193.1" x2="1989.1" y2="665.9" fill="#494138" stroke="#ebbe50" stroke-miterlimit="10" stroke-width="15"/><line x1="964.6" y1="-240.4" x2="2254.2" y2="618.7" fill="#494138" stroke="#ebbe50" stroke-miterlimit="10" stroke-width="15"/><line x1="2062.6" y1="289.4" x2="773" y2="1148.4" fill="#494138" stroke="#ebbe50" stroke-miterlimit="10" stroke-width="15"/></g></svg>